<?xml version="1.0" encoding="UTF-8"?>
<svg version="1.1" viewBox="0 0 2048 2048" width="1280" height="1280" xmlns="http://www.w3.org/2000/svg">
<path transform="translate(1019,485)" d="m0 0h17l13 4 12 7 10 9 10 13 19 29 450 675 8 14 5 12 1 6v18l-5 17-6 9-7 9-18 20-11 12-7 8-9 10-12 16-16 21-13 18-12 19-13 21-8 13-11 20-21 42-16 39-10 26-13 41-7 25-10 46-6 36-1 9 2 6 14 12 9 8v2h2l7 8 9 10 13 17 12 18 9 16 8 16 7 16 10 30 5 21 4 25 1 13v30l-3 12-7 14-9 10-8 6-12 6-7 3h-744l-19-7-10-7-9-9-8-14-4-15v-27l3-26 5-25 6-22 10-27 10-21 16-27 16-21 11-13 14-15 12-11 8-7 1-1-1-15-5-31-11-50-8-28-12-39-12-30-15-36-19-38-12-22-12-20-21-33-10-14-10-13-16-21-9-11-9-10-7-8-14-15-12-14-9-12-4-8-4-14 1-21 7-17 9-15 29-43 29-44 29-43 29-44 29-43 29-44 29-43 29-44 29-43 29-44 29-43 29-44 29-43 29-44 29-43 29-44 10-14 11-11 12-7 13-4z" fill="#FDBB3D"/>
<path transform="translate(48)" d="m0 0h264l15 6 10 7 9 8 9 14 4 13 1 11v61l494-1 5-12 14-26 11-14 12-14 11-10 14-11 13-8 19-10 24-8 18-4 14-2h37l23 5 27 9 23 12 14 10 13 11 9 8 9 11 10 13 9 16 8 16 3 8 494 1v-67l2-10 5-12 7-10 9-9 14-8 11-4h264l15 6 13 9 9 10 8 15 3 9v261l-6 16-7 11-8 9-11 7-10 4-8 2-15 1h-233l-18-2-13-5-11-8-9-10-7-12-3-11-1-8v-64h-247v2l6 2 18 11 19 14 18 14 12 9 14 11 16 15 8 7 13 12 3 2v2l4 2 10 10 7 8 14 15 11 12 12 14 9 12 14 18 15 20 10 16 15 23 12 20 12 23 12 22 11 24 19 46 12 36 9 29 9 38 7 33 8 58 2 27 1 3 12 4 22 12 11 7 11 9 10 9 5 5 10 11 10 13 13 24 6 14 7 24 3 22v31l-3 22-8 27-7 16-10 18-12 16-14 15-11 10-16 12-22 12-19 7-17 5-19 3-9 1h-25l-25-3-29-9-17-8-17-10-16-13-8-7-10-10-8-10-8-11-9-16-8-17-8-26-3-22-1-10v-15l3-26 5-19 6-17 8-16 8-14 11-14 12-14 10-9 17-13 21-12 15-7h2l-7-53-4-24-9-40-7-25-14-43-19-45-15-30-12-22-9-15-13-20-12-18-10-13-14-18-13-16-12-13-7-8-16-17-8-8-8-7-13-12-8-7-16-13-32-24-17-11-22-14-15-9-39-20-17-8-39-16-36-12-30-9h-4l-11 20-8 10-11 13-11 11-14 11-14 9-21 11-24 8-18 4-20 2h-11l-31-3-19-5-18-6-25-13-10-7-16-13-7-6-7-8-13-16-12-21v-2l-25 7-38 12-31 12-30 13-17 9-16 8-20 11-17 11-23 15-19 14-18 14-10 8-10 9-8 7-12 11-13 12-7 7-7 8-15 16-1 2h-2l-2 4-11 13-9 12-10 13-11 15-11 17-16 25-17 32-10 19-17 40-9 24-13 41-9 38-5 24-7 50-2 18 9 3 24 13 14 10 14 12 5 4 9 11 10 12 8 13 11 21 7 21 4 17 2 18v29l-3 22-6 21-6 16-10 19-8 12-11 13-8 10-11 9-15 12-18 10-14 7-25 8-14 3-18 2h-25l-25-3-26-8-12-5-22-12-13-10-11-9-12-12-9-11-8-11-10-18-7-15-8-26-3-22-1-9v-16l3-26 5-19 6-17 8-16 8-14 11-14 12-14 10-9 14-11 13-8 19-10 11-4 1-1 3-31 8-58 10-46 6-24 13-41 8-24 15-36 11-25 11-22 9-16 7-14 10-17 10-15 14-22 12-17 14-18 10-13 11-14 9-10 14-15 9-10 12-13 12-12 8-7 13-12 10-9 14-12 16-12 13-10 20-15 19-12 8-5h2v-2h-246v57l-1 14-4 13-7 12-9 10-11 7-13 5-5 1-14 1h-233l-15-1-15-5-13-9-9-10-7-12-4-12v-263l6-15 7-11 10-10 14-8z" fill="#1388FC"/>
<path transform="translate(1736)" d="m0 0h264l15 6 13 9 9 10 8 15 3 9v261l-6 16-7 11-8 9-11 7-10 4-8 2-15 1h-233l-18-2-13-5-11-8-9-10-7-12-3-11-1-8v-64h-247v2l6 2 18 11 19 14 18 14 12 9 14 11 16 15 8 7 13 12 3 2v2l4 2 10 10 7 8 14 15 11 12 12 14 9 12 14 18 15 20 10 16 15 23 12 20 12 23 12 22 11 24 19 46 12 36 9 29 9 38 7 33 8 58 2 27 1 3 12 4 22 12 11 7 11 9 10 9 5 5 10 11 10 13 13 24 6 14 7 24 3 22v31l-3 22-8 27-7 16-10 18-12 16-14 15-11 10-16 12-22 12-19 7-17 5-19 3-9 1h-25l-25-3-29-9-17-8-17-10-16-13-8-7-10-10-8-10-8-11-9-16-8-17-8-26-3-22-1-10v-15l3-26 5-19 6-17 8-16 8-14 11-14 12-14 10-9 17-13 21-12 15-7h2l-7-53-4-24-9-40-7-25-14-43-19-45-15-30-12-22-9-15-13-20-12-18-10-13-14-18-13-16-12-13-7-8-16-17-8-8-8-7-13-12-8-7-16-13-32-24-17-11-22-14-15-9-39-20-17-8-39-16-36-12-34-10 7-18 7-25 3-17 1-11v-22l-1-11-2-7-3-18-1-10 2-1h490v-67l2-10 5-12 7-10 9-9 14-8z" fill="#0F6EF1"/>
<path transform="translate(963,525)" d="m0 0h1v568l-1 2-18 8-20 11-13 10-14 12-8 8-13 17-10 16-9 19-7 21-4 19-2 18v20l3 23 4 17 6 18 8 17 11 18 13 16 9 10 13 11 17 12 25 13 18 6 21 5 31 4 1 4-1 239-132 1-3 1-22 2-24 4-25 6-26 9-28 13-21 12-24 16h-2l-7-44-11-50-8-28-12-39-12-30-15-36-19-38-12-22-12-20-21-33-10-14-10-13-16-21-9-11-9-10-7-8-14-15-12-14-9-12-4-8-4-14 1-21 7-17 9-15 29-43 29-44 29-43 29-44 29-43 29-44 29-43 29-44 29-43 29-44 29-43 29-44 29-43 29-44 29-43z" fill="#FDD94C"/>
<path transform="translate(1025,1687)" d="m0 0 144 1 24 3 24 5 27 8 24 10 16 8 20 11 23 15 5 3 3 5 11 9 7 7 4 3v2h2l7 8 9 10 13 17 12 18 9 16 8 16 7 16 10 30 5 21 4 25 1 13v30l-3 12-7 14-9 10-8 6-12 6-7 3h-744l-19-7-10-7-9-9-8-14-4-15v-27l3-26 5-25 6-22 10-27 10-21 16-27 16-21 11-13 14-15 12-11 8-7 5-5 20-13 19-11 15-8 21-9 27-9 25-6 28-4 14-1z" fill="#984F10"/>
<path transform="translate(1019,485)" d="m0 0h17l13 4 12 7 10 9 10 13 4 6v130l-1 440 9 3 16 8 16 9 10 8 13 11 13 13 10 13 11 18 8 16 6 16 5 18 3 20 1 22-3 27-4 17-7 21-13 25-10 14-11 13-4 5-8 7-12 10-13 9-24 13-27 9-20 4-17 2-18-1-27-4-28-8-25-12-11-7-13-10-13-11-11-12-12-16-12-21-6-14-7-22-4-23-1-10v-20l3-24 6-23 7-18 10-19 9-13 8-10 9-10 13-12 16-12 22-12 13-6h3l1-571 8-12 9-10 8-7 12-6 10-3z" fill="#984F10"/>
<path transform="translate(889,1688)" d="m0 0h135l1 105v195l-1 60h-370l-19-7-10-7-9-9-8-14-4-15v-27l3-26 5-25 6-22 10-27 10-21 16-27 16-21 11-13 14-15 12-11 8-7 5-5 20-13 19-11 15-8 21-9 27-9 25-6 28-4z" fill="#BE6517"/>
<path transform="translate(48)" d="m0 0h264l15 6 10 7 9 8 9 14 4 13 1 11v61h485v1h-485l1 18v78l1 23h-2v57l-1 14-4 13-7 12-9 10-11 7-13 5-5 1-14 1h-233l-15-1-15-5-13-9-9-10-7-12-4-12v-263l6-15 7-11 10-10 14-8z" fill="#00C8C9"/>
<path transform="translate(1736)" d="m0 0h264l15 6 13 9 9 10 8 15 3 9v261l-6 16-7 11-8 9-11 7-10 4-8 2-15 1h-233l-18-2-13-5-11-8-9-10-7-12-3-11-1-8v-64h-217v-1h216v-117l1-69 2-10 5-12 7-10 9-9 14-8z" fill="#00A0B2"/>
<path transform="translate(1009)" d="m0 0h37l23 5 27 9 23 12 14 10 13 11 9 8 9 11 10 13 9 16 8 16 3 8 4 2h-2l4 20 2 12 1 3 1 11v22l-2 16-4 20-7 22-5 12-12 22-8 10-11 13-11 11-14 11-14 9-21 11-24 8-18 4-20 2h-11l-31-3-19-5-18-6-25-13-10-7-16-13-7-6-7-8-13-16-12-21v-2l-3-1-6-15-6-22-4-26v-28l2-16 2-15 3-15 3-4 5-13 13-24 11-14 12-14 11-10 14-11 13-8 19-10 24-8 18-4z" fill="#00C8C9"/>
<path transform="translate(293,841)" d="m0 0h19l29 4 27 6 16 8 20 11 16 13 12 10 9 11 10 12 8 13 11 21 7 21 4 17 2 18v29l-3 22-6 21-6 16-10 19-8 12-11 13-8 10-11 9-15 12-18 10-14 7-25 8-14 3-18 2h-25l-25-3-26-8-12-5-22-12-13-10-11-9-12-12-9-11-8-11-10-18-7-15-8-26-3-22-1-9v-16l3-26 5-19 6-17 8-16 8-14 11-14 12-14 10-9 14-11 13-8 19-10 11-4 6-2 21-4z" fill="#00C8C9"/>
<path transform="translate(1737,841)" d="m0 0h15l31 4 18 4 1-2 1 3 12 4 22 12 11 7 11 9 10 9 5 5 10 11 10 13 13 24 6 14 7 24 3 22v31l-3 22-8 27-7 16-10 18-12 16-14 15-11 10-16 12-22 12-19 7-17 5-19 3-9 1h-25l-25-3-29-9-17-8-17-10-16-13-8-7-10-10-8-10-8-11-9-16-8-17-8-26-3-22-1-10v-15l3-26 5-19 6-17 8-16 8-14 11-14 12-14 10-9 17-13 21-12 15-7 24-5 25-4z" fill="#00A0B2"/>
<path transform="translate(1033,504)" d="m0 0h11l20 12h3l-1-4v-6l5-1 10 13 4 6v130l-1 440 9 3 16 8 16 9 10 8 13 11 13 13 10 13 11 18 8 16 6 16 5 18 3 20 1 22-3 27-4 17-7 21-13 25-10 14-11 13-4 5-8 7-12 10-13 9-24 13-8 3-14 3-15 4-23 3h-10l-1-1v-871l1-40v-11l2-10 2-3h2z" fill="#6E3808"/>
<path transform="translate(1025)" d="m0 0h21l23 5 27 9 23 12 14 10 13 11 9 8 9 11 10 13 9 16 8 16 3 8 4 2h-2l4 20 2 12 1 3 1 11v22l-2 16-4 20-7 22-5 12-12 22-8 10-11 13-11 11-14 11-14 9-21 11-24 8-18 4-8 1h-19l-1-1-1-20v-97l11-1 4-1 1-2 12-5 13-9 7-8 8-16 2-6 1-7v-12l-3-14-7-14-9-11-15-9-12-4-9-1v-2l-4-1v-117z" fill="#00A0B2"/>
<path transform="translate(127,120)" d="m0 0h97l15 1 1 1v116l-1 1h-118l-1-1v-115l1-2z" fill="#E1F1FB"/>
<path transform="translate(1868,120)" d="m0 0h21l38 1 1 61-1 57h-118l-1-6v-110l1-2z" fill="#C0E2FE"/>
<path transform="translate(1021,120)" d="m0 0 16 1 16 6 12 8 9 11 7 14 3 14v12l-2 10-5 12-7 11-10 9-12 7-11 4-8 1h-10l-15-4-14-7-12-11-7-11-4-9-2-7v-21l4-14 7-12 8-9 11-7 12-5z" fill="#C0E2FF"/>
<path transform="translate(294,961)" d="m0 0h19l16 5 12 7 10 10 7 11 4 11 2 11v9l-4 16-7 13-10 11-10 7-12 5-8 2h-18l-12-3-13-7-12-11-7-11-4-9-2-7v-22l5-15 7-11 6-7 10-7 11-5z" fill="#E1F1FB"/>
<path transform="translate(1741,961)" d="m0 0h10l16 4 9 5 11 9 8 10 5 12 3 11v16l-5 16-6 10-9 10-9 7-11 5-14 3h-11l-16-4-10-5-10-8-8-10-6-13-3-11v-16l3-13 7-13 9-10 11-8 12-5z" fill="#C0E2FF"/>
<path transform="translate(1015,121)" d="m0 0h9l1 1-1 116-4 1-13-2-12-5-11-8-7-7-8-14-4-12v-21l4-14 7-12 8-9 11-7 12-5z" fill="#E2F1FB"/>
<path transform="translate(1082,521)" d="m0 0 3 3v130l-1 439h-1l-1-261z" fill="#AD5B13"/>
<path transform="translate(1198,120)" d="m0 0h395v1l-396 1v3l3 1 2 16 2 5 1 6v50l-2 10-1 1-2 12-1 3h-2l1-8 4-21 1-11v-22l-1-11-2-7-3-18-1-10z" fill="#0F96F1"/>
<path transform="translate(1772,966)" d="m0 0 8 4 10 9 6 8 6 12 3 12v19l-2 7-5 12-7 10-10 10-16 8-9 3-7 1-18-1-8-3-6-2v-2l5 1 16 4h11l16-4 12-6 10-9 8-11 5-12 2-8v-16l-5-17-6-10-7-8-9-7-4-2z" fill="#00C7C9"/>
<path transform="translate(1619,120)" d="m0 0h69l-1 119-4-2 1-8v-105l1-2-66-1z" fill="#0F95F1"/>
<path transform="translate(1737,838)" d="m0 0h10l22 3 20 3 12 3v2l-13-2-27-4-9-1h-15l-29 4-22 5h-4v-3l14-3 12-3 19-3z" fill="#1488FD"/>
<path transform="translate(1717,965)" d="m0 0 2 2-14 9-7 7-8 14-3 9-1 6v16l4 14 7 13 8 9-2 2-9-10-7-14-3-9-1-6v-14l2-10 4-11 8-12 10-9z" fill="#00C8C9"/>
<path transform="translate(1198,120)" d="m0 0 1 2h-2v3l3 1 2 16 2 5 1 6v50l-2 10-1 1-2 12-1 3h-2l1-8 4-21 1-11v-22l-1-11-2-7-3-18-1-10z" fill="#1488FD"/>
<path transform="translate(1737,959)" d="m0 0h13l7 1 9 3 1 2-7-1-9-2h-10l-17 2v-2z" fill="#00C8C9"/>
<path transform="translate(1924,229)" d="m0 0h2l1 2v6l-1 1h-7l-2-3 2-4z" fill="#E3F2FB"/>
<path transform="translate(906,1128)" d="m0 0 2 1-23 23v-3l12-13z" fill="#914B0E"/>
<path transform="translate(1921,121)" d="m0 0h6l-1 8-7-3-6-3v-1z" fill="#E2F1FB"/>
<path transform="translate(1691,1048)" d="m0 0h2l6 9 6 8h-3l-8-9-3-5z" fill="#02C1CE"/>
<path transform="translate(1075,210)" d="m0 0 2 2-7 9-7 7-5 3v-3l9-7z" fill="#00C8C9"/>
<path transform="translate(929,1111)" d="m0 0 2 1-11 8-4 2 2-4z" fill="#87460C"/>
<path transform="translate(906,1128)" d="m0 0 2 1-12 11-2-1 8-8z" fill="#85450C"/>
<path transform="translate(1705,1065)" d="m0 0 4 2 8 5-2 2-9-6z" fill="#00C8C9"/>
</svg>
